<svg width="188" height="60" viewBox="0 0 188 60" fill="none" xmlns="http://www.w3.org/2000/svg">
<rect width="59" height="60" rx="5" fill="url(#paint0_linear_0_274)"/>
<path d="M11.409 41V19.22H22.002C24.686 19.242 26.666 19.759 27.942 20.771C29.218 21.761 29.856 23.202 29.856 25.094C29.856 26.326 29.493 27.393 28.767 28.295C28.041 29.175 26.93 29.736 25.434 29.978V30.011C27.106 30.231 28.349 30.814 29.163 31.76C29.999 32.684 30.417 33.806 30.417 35.126C30.417 36.996 29.757 38.448 28.437 39.482C27.117 40.494 25.137 41 22.497 41H11.409ZM16.887 37.007H21.54C22.574 37.007 23.344 36.798 23.85 36.38C24.356 35.962 24.609 35.357 24.609 34.565C24.609 33.795 24.356 33.212 23.85 32.816C23.344 32.398 22.574 32.189 21.54 32.189H16.887V37.007ZM16.887 28.13H21.012C23.036 28.13 24.048 27.338 24.048 25.754C24.048 24.17 23.036 23.378 21.012 23.378H16.887V28.13ZM41.6236 41.33C39.7976 41.33 38.2136 40.989 36.8716 40.307C35.5516 39.625 34.5286 38.646 33.8026 37.37C33.0766 36.094 32.7136 34.554 32.7136 32.75C32.7136 30.946 33.0766 29.406 33.8026 28.13C34.5286 26.854 35.5406 25.875 36.8386 25.193C38.1586 24.511 39.6656 24.17 41.3596 24.17C43.0976 24.17 44.5716 24.511 45.7816 25.193C47.0136 25.853 47.9486 26.777 48.5866 27.965C49.2246 29.131 49.5436 30.473 49.5436 31.991C49.5436 32.387 49.5326 32.783 49.5106 33.179C49.4886 33.575 49.4556 33.905 49.4116 34.169H36.3436V31.166H46.9366L44.2636 32.189C44.2636 30.869 44.0216 29.857 43.5376 29.153C43.0756 28.449 42.3496 28.097 41.3596 28.097C40.6556 28.097 40.0506 28.262 39.5446 28.592C39.0606 28.922 38.6866 29.439 38.4226 30.143C38.1806 30.847 38.0596 31.749 38.0596 32.849C38.0596 33.927 38.2026 34.807 38.4886 35.489C38.7746 36.149 39.1816 36.633 39.7096 36.941C40.2376 37.227 40.8756 37.37 41.6236 37.37C42.4596 37.37 43.1196 37.205 43.6036 36.875C44.1096 36.545 44.4836 36.083 44.7256 35.489L49.2136 36.974C48.9056 37.92 48.3666 38.723 47.5966 39.383C46.8486 40.021 45.9466 40.505 44.8906 40.835C43.8566 41.165 42.7676 41.33 41.6236 41.33Z" fill="white"/>
<path d="M83.74 35.33C83.36 36.71 82.75 37.85 81.91 38.75C81.07 39.63 80.07 40.28 78.91 40.7C77.75 41.1 76.47 41.3 75.07 41.3C73.07 41.3 71.34 40.9 69.88 40.1C68.42 39.28 67.3 38.11 66.52 36.59C65.74 35.07 65.35 33.24 65.35 31.1C65.35 28.96 65.74 27.13 66.52 25.61C67.3 24.09 68.42 22.93 69.88 22.13C71.34 21.31 73.06 20.9 75.04 20.9C76.42 20.9 77.69 21.1 78.85 21.5C80.01 21.88 80.99 22.47 81.79 23.27C82.59 24.07 83.16 25.1 83.5 26.36L78.97 28.19C78.69 26.95 78.23 26.1 77.59 25.64C76.97 25.18 76.18 24.95 75.22 24.95C74.28 24.95 73.46 25.18 72.76 25.64C72.08 26.1 71.55 26.79 71.17 27.71C70.81 28.61 70.63 29.74 70.63 31.1C70.63 32.44 70.8 33.57 71.14 34.49C71.48 35.41 71.99 36.1 72.67 36.56C73.37 37.02 74.23 37.25 75.25 37.25C76.21 37.25 77.02 36.99 77.68 36.47C78.36 35.93 78.82 35.11 79.06 34.01L83.74 35.33ZM86.2499 41V26H90.7499L90.9599 29.24C91.3399 28.12 91.8999 27.25 92.6399 26.63C93.3999 26.01 94.3599 25.7 95.5199 25.7C95.8999 25.7 96.2199 25.73 96.4799 25.79C96.7599 25.85 96.9799 25.93 97.1399 26.03L96.6299 30.23C96.4299 30.15 96.1699 30.09 95.8499 30.05C95.5499 29.99 95.1799 29.96 94.7399 29.96C94.1399 29.96 93.5799 30.09 93.0599 30.35C92.5399 30.61 92.1199 31 91.7999 31.52C91.4999 32.02 91.3499 32.66 91.3499 33.44V41H86.2499ZM106.285 41.3C104.625 41.3 103.185 40.99 101.965 40.37C100.765 39.75 99.8348 38.86 99.1748 37.7C98.5148 36.54 98.1848 35.14 98.1848 33.5C98.1848 31.86 98.5148 30.46 99.1748 29.3C99.8348 28.14 100.755 27.25 101.935 26.63C103.135 26.01 104.505 25.7 106.045 25.7C107.625 25.7 108.965 26.01 110.065 26.63C111.185 27.23 112.035 28.07 112.615 29.15C113.195 30.21 113.485 31.43 113.485 32.81C113.485 33.17 113.475 33.53 113.455 33.89C113.435 34.25 113.405 34.55 113.365 34.79H101.485V32.06H111.115L108.685 32.99C108.685 31.79 108.465 30.87 108.025 30.23C107.605 29.59 106.945 29.27 106.045 29.27C105.405 29.27 104.855 29.42 104.395 29.72C103.955 30.02 103.615 30.49 103.375 31.13C103.155 31.77 103.045 32.59 103.045 33.59C103.045 34.57 103.175 35.37 103.435 35.99C103.695 36.59 104.065 37.03 104.545 37.31C105.025 37.57 105.605 37.7 106.285 37.7C107.045 37.7 107.645 37.55 108.085 37.25C108.545 36.95 108.885 36.53 109.105 35.99L113.185 37.34C112.905 38.2 112.415 38.93 111.715 39.53C111.035 40.11 110.215 40.55 109.255 40.85C108.315 41.15 107.325 41.3 106.285 41.3ZM124.708 31.49C124.708 30.79 124.508 30.24 124.108 29.84C123.728 29.42 123.208 29.21 122.548 29.21C121.888 29.21 121.318 29.38 120.838 29.72C120.378 30.04 120.058 30.62 119.878 31.46L115.558 30.44C115.838 29 116.578 27.85 117.778 26.99C118.978 26.13 120.668 25.7 122.848 25.7C124.308 25.7 125.548 25.92 126.568 26.36C127.608 26.78 128.398 27.42 128.938 28.28C129.498 29.12 129.778 30.16 129.778 31.4V36.89C129.778 37.67 130.128 38.06 130.828 38.06C131.188 38.06 131.478 38.02 131.698 37.94L131.398 40.85C130.798 41.13 130.068 41.27 129.208 41.27C128.428 41.27 127.738 41.15 127.138 40.91C126.538 40.65 126.068 40.27 125.728 39.77C125.388 39.25 125.218 38.6 125.218 37.82V37.64L125.788 37.43C125.788 38.29 125.528 39.01 125.008 39.59C124.508 40.17 123.848 40.6 123.028 40.88C122.228 41.16 121.388 41.3 120.508 41.3C119.488 41.3 118.598 41.14 117.838 40.82C117.078 40.5 116.488 40.04 116.068 39.44C115.668 38.82 115.468 38.06 115.468 37.16C115.468 36.08 115.788 35.19 116.428 34.49C117.088 33.77 118.118 33.27 119.518 32.99L125.188 31.82L125.158 34.52L122.278 35.12C121.678 35.24 121.228 35.42 120.928 35.66C120.648 35.88 120.508 36.22 120.508 36.68C120.508 37.12 120.668 37.45 120.988 37.67C121.308 37.89 121.688 38 122.128 38C122.468 38 122.788 37.95 123.088 37.85C123.408 37.75 123.688 37.6 123.928 37.4C124.168 37.18 124.358 36.91 124.498 36.59C124.638 36.27 124.708 35.89 124.708 35.45V31.49ZM139.395 21.23V35.66C139.395 36.38 139.565 36.9 139.905 37.22C140.265 37.52 140.755 37.67 141.375 37.67C141.855 37.67 142.265 37.62 142.605 37.52C142.965 37.4 143.285 37.23 143.565 37.01L144.105 40.16C143.605 40.52 142.975 40.8 142.215 41C141.455 41.2 140.675 41.3 139.875 41.3C138.735 41.3 137.745 41.14 136.905 40.82C136.085 40.5 135.445 39.99 134.985 39.29C134.545 38.59 134.315 37.66 134.295 36.5V22.64L139.395 21.23ZM143.865 26V29.63H131.715V26H143.865ZM148.771 24.26C147.731 24.26 146.971 24.07 146.491 23.69C146.031 23.29 145.801 22.67 145.801 21.83C145.801 20.97 146.031 20.35 146.491 19.97C146.971 19.57 147.731 19.37 148.771 19.37C149.791 19.37 150.541 19.57 151.021 19.97C151.501 20.35 151.741 20.97 151.741 21.83C151.741 22.67 151.501 23.29 151.021 23.69C150.541 24.07 149.791 24.26 148.771 24.26ZM151.321 26V41H146.221V26H151.321ZM164.701 26H169.981L164.581 41H158.491L153.091 26H158.461L161.551 37.43L164.701 26ZM178.824 41.3C177.164 41.3 175.724 40.99 174.504 40.37C173.304 39.75 172.374 38.86 171.714 37.7C171.054 36.54 170.724 35.14 170.724 33.5C170.724 31.86 171.054 30.46 171.714 29.3C172.374 28.14 173.294 27.25 174.474 26.63C175.674 26.01 177.044 25.7 178.584 25.7C180.164 25.7 181.504 26.01 182.604 26.63C183.724 27.23 184.574 28.07 185.154 29.15C185.734 30.21 186.024 31.43 186.024 32.81C186.024 33.17 186.014 33.53 185.994 33.89C185.974 34.25 185.944 34.55 185.904 34.79H174.024V32.06H183.654L181.224 32.99C181.224 31.79 181.004 30.87 180.564 30.23C180.144 29.59 179.484 29.27 178.584 29.27C177.944 29.27 177.394 29.42 176.934 29.72C176.494 30.02 176.154 30.49 175.914 31.13C175.694 31.77 175.584 32.59 175.584 33.59C175.584 34.57 175.714 35.37 175.974 35.99C176.234 36.59 176.604 37.03 177.084 37.31C177.564 37.57 178.144 37.7 178.824 37.7C179.584 37.7 180.184 37.55 180.624 37.25C181.084 36.95 181.424 36.53 181.644 35.99L185.724 37.34C185.444 38.2 184.954 38.93 184.254 39.53C183.574 40.11 182.754 40.55 181.794 40.85C180.854 41.15 179.864 41.3 178.824 41.3Z" fill="white"/>
<defs>
<linearGradient id="paint0_linear_0_274" x1="2.5" y1="1" x2="40" y2="70.5" gradientUnits="userSpaceOnUse">
<stop stop-color="#F76E11"/>
<stop offset="0.574998" stop-color="#FF9F45"/>
<stop offset="0.923657" stop-color="#FFBC80"/>
</linearGradient>
</defs>
</svg>
