<svg width="59" height="60" viewBox="0 0 59 60" fill="none" xmlns="http://www.w3.org/2000/svg">
<rect width="59" height="60" rx="5" fill="url(#paint0_linear_0_8)"/>
<path d="M11.409 41V19.22H22.002C24.686 19.242 26.666 19.759 27.942 20.771C29.218 21.761 29.856 23.202 29.856 25.094C29.856 26.326 29.493 27.393 28.767 28.295C28.041 29.175 26.93 29.736 25.434 29.978V30.011C27.106 30.231 28.349 30.814 29.163 31.76C29.999 32.684 30.417 33.806 30.417 35.126C30.417 36.996 29.757 38.448 28.437 39.482C27.117 40.494 25.137 41 22.497 41H11.409ZM16.887 37.007H21.54C22.574 37.007 23.344 36.798 23.85 36.38C24.356 35.962 24.609 35.357 24.609 34.565C24.609 33.795 24.356 33.212 23.85 32.816C23.344 32.398 22.574 32.189 21.54 32.189H16.887V37.007ZM16.887 28.13H21.012C23.036 28.13 24.048 27.338 24.048 25.754C24.048 24.17 23.036 23.378 21.012 23.378H16.887V28.13ZM41.6236 41.33C39.7976 41.33 38.2136 40.989 36.8716 40.307C35.5516 39.625 34.5286 38.646 33.8026 37.37C33.0766 36.094 32.7136 34.554 32.7136 32.75C32.7136 30.946 33.0766 29.406 33.8026 28.13C34.5286 26.854 35.5406 25.875 36.8386 25.193C38.1586 24.511 39.6656 24.17 41.3596 24.17C43.0976 24.17 44.5716 24.511 45.7816 25.193C47.0136 25.853 47.9486 26.777 48.5866 27.965C49.2246 29.131 49.5436 30.473 49.5436 31.991C49.5436 32.387 49.5326 32.783 49.5106 33.179C49.4886 33.575 49.4556 33.905 49.4116 34.169H36.3436V31.166H46.9366L44.2636 32.189C44.2636 30.869 44.0216 29.857 43.5376 29.153C43.0756 28.449 42.3496 28.097 41.3596 28.097C40.6556 28.097 40.0506 28.262 39.5446 28.592C39.0606 28.922 38.6866 29.439 38.4226 30.143C38.1806 30.847 38.0596 31.749 38.0596 32.849C38.0596 33.927 38.2026 34.807 38.4886 35.489C38.7746 36.149 39.1816 36.633 39.7096 36.941C40.2376 37.227 40.8756 37.37 41.6236 37.37C42.4596 37.37 43.1196 37.205 43.6036 36.875C44.1096 36.545 44.4836 36.083 44.7256 35.489L49.2136 36.974C48.9056 37.92 48.3666 38.723 47.5966 39.383C46.8486 40.021 45.9466 40.505 44.8906 40.835C43.8566 41.165 42.7676 41.33 41.6236 41.33Z" fill="white"/>
<defs>
<linearGradient id="paint0_linear_0_8" x1="2.5" y1="1" x2="40" y2="70.5" gradientUnits="userSpaceOnUse">
<stop stop-color="#F76E11"/>
<stop offset="0.574998" stop-color="#FF9F45"/>
<stop offset="0.923657" stop-color="#FFBC80"/>
</linearGradient>
</defs>
</svg>
